<svg id="SvgjsSvg1006" width="514" height="102.890625" xmlns="http://www.w3.org/2000/svg" version="1.1" xmlns:xlink="http://www.w3.org/1999/xlink" xmlns:svgjs="http://svgjs.com/svgjs"><defs id="SvgjsDefs1007"><marker id="SvgjsMarker1038" markerWidth="16" markerHeight="12" refX="16" refY="6" viewBox="0 0 16 12" orient="auto" markerUnits="userSpaceOnUse"><path id="SvgjsPath1039" d="M0,2 L14,6 L0,11 L0,2" fill="#323232" stroke="#323232" stroke-width="2"></path></marker><marker id="SvgjsMarker1042" markerWidth="16" markerHeight="12" refX="16" refY="6" viewBox="0 0 16 12" orient="auto" markerUnits="userSpaceOnUse"><path id="SvgjsPath1043" d="M0,2 L14,6 L0,11 L0,2" fill="#323232" stroke="#323232" stroke-width="2"></path></marker><marker id="SvgjsMarker1046" markerWidth="16" markerHeight="12" refX="16" refY="6" viewBox="0 0 16 12" orient="auto" markerUnits="userSpaceOnUse"><path id="SvgjsPath1047" d="M0,2 L14,6 L0,11 L0,2" fill="#323232" stroke="#323232" stroke-width="2"></path></marker></defs><g id="SvgjsG1008" transform="translate(25,32.890625)"><path id="SvgjsPath1009" d="M 0 22.5C 0 -7.5 61 -7.5 61 22.5C 61 52.5 0 52.5 0 22.5Z" stroke="#323232" stroke-width="2" fill-opacity="1" fill="#66b2ff"></path><g id="SvgjsG1010"><text id="SvgjsText1011" font-family="微软雅黑" text-anchor="middle" font-size="13px" width="7" fill="#323232" font-weight="400" align="middle" anchor="middle" family="微软雅黑" size="13px" weight="400" font-style="" y="12.55" transform="rotate(0)"><tspan id="SvgjsTspan1012" dy="16" x="30.5"><tspan id="SvgjsTspan1013" style="text-decoration:;">P</tspan></tspan></text></g></g><g id="SvgjsG1014" transform="translate(135,35.140625)"><path id="SvgjsPath1015" d="M 0 4Q 0 0 4 0L 82 0Q 86 0 86 4L 86 36Q 86 40 82 40L 4 40Q 0 40 0 36Z" stroke="#323232" stroke-width="2" fill-opacity="1" fill="#ffb366"></path><g id="SvgjsG1016"><text id="SvgjsText1017" font-family="微软雅黑" text-anchor="middle" font-size="13px" width="59" fill="#323232" font-weight="400" align="middle" anchor="middle" family="微软雅黑" size="13px" weight="400" font-style="" y="-22.09285714285714" transform="rotate(0)"><tspan id="SvgjsTspan1018" dy="16" x="43"><tspan id="SvgjsTspan1019" style="text-decoration:;">type=direct</tspan></tspan><tspan id="SvgjsTspan1020" dy="16" x="43"><tspan id="SvgjsTspan1021" style="text-decoration:;"> </tspan></tspan><tspan id="SvgjsTspan1022" dy="16" x="43"><tspan id="SvgjsTspan1023" style="text-decoration:;">X</tspan></tspan></text></g></g><g id="SvgjsG1024" transform="translate(274,32.890625)"><path id="SvgjsPath1025" d="M 0 0L 102 0L 102 45L 0 45Z" stroke="#323232" stroke-width="2" fill-opacity="1" fill="#ff3333"></path><g id="SvgjsG1026"><text id="SvgjsText1027" font-family="微软雅黑" text-anchor="middle" font-size="13px" width="9" fill="#323232" font-weight="400" align="middle" anchor="middle" family="微软雅黑" size="13px" weight="400" font-style="" y="12.55" transform="rotate(0)"><tspan id="SvgjsTspan1028" dy="16" x="51"><tspan id="SvgjsTspan1029" style="text-decoration:;">Q</tspan></tspan></text></g></g><g id="SvgjsG1030" transform="translate(421,35.640625)"><path id="SvgjsPath1031" d="M 0 19.75C 0 -6.583333333333333 68 -6.583333333333333 68 19.75C 68 46.083333333333336 0 46.083333333333336 0 19.75Z" stroke="#323232" stroke-width="2" fill-opacity="1" fill="#0000ff"></path><g id="SvgjsG1032"><text id="SvgjsText1033" font-family="微软雅黑" text-anchor="middle" font-size="13px" width="9" fill="#323232" font-weight="400" align="middle" anchor="middle" family="微软雅黑" size="13px" weight="400" font-style="" y="9.8" transform="rotate(0)"><tspan id="SvgjsTspan1034" dy="16" x="34"><tspan id="SvgjsTspan1035" style="text-decoration:;">C</tspan></tspan></text></g></g><g id="SvgjsG1036"><path id="SvgjsPath1037" d="M86 55.390625L110.5 55.390625L110.5 55.140625L135 55.140625" stroke="#323232" stroke-width="2" fill="none" marker-end="url(#SvgjsMarker1038)"></path></g><g id="SvgjsG1040"><path id="SvgjsPath1041" d="M221 55.140625L247.5 55.140625L247.5 55.390625L274 55.390625" stroke="#323232" stroke-width="2" fill="none" marker-end="url(#SvgjsMarker1042)"></path></g><g id="SvgjsG1044"><path id="SvgjsPath1045" d="M376 55.390625L398.5 55.390625L398.5 55.390625L421 55.390625" stroke="#323232" stroke-width="2" fill="none" marker-end="url(#SvgjsMarker1046)"></path></g></svg>