<svg id="kity_svg_6" xmlns="http://www.w3.org/2000/svg" xmlns:xlink="http://www.w3.org/1999/xlink" version="1.1" width="1305" height="966" style="background: rgb(251, 251, 251); visibility: visible;" viewBox="0 0 1305 966"><defs id="kity_defs_7"><linearGradient id="kity_linearGradient_17" x1="0" y1="0" x2="0" y2="1"><stop id="kity_stop_18" offset="0" stop-color="rgb(255, 255, 255)"></stop><stop id="kity_stop_19" offset="1" stop-color="rgb(204, 204, 204)"></stop></linearGradient><marker id="kity_marker_2" orient="auto" refX="6" refY="0" viewBox="-7 -7 14 14" markerWidth="7" markerHeight="7" markerUnits="userSpaceOnUse"><path id="kity_path_3" fill="rgb(115, 161, 191)" stroke="none" d="M6,0A6,6,0,1,1,-6,0A6,6,0,1,1,6,0"></path></marker></defs><g id="kity_g_8"><g id="minder1" text-rendering="optimize-speed"><g id="minder_connect_group1"><path id="kity_path_31" fill="none" stroke="rgb(115, 161, 191)" stroke-width="1" d="M104.5,522.5A202,361,0,0,1,306.5,161.5"></path><path id="kity_path_33" fill="none" stroke="rgb(115, 161, 191)" stroke-width="1" d="M393.5,161.5C413.5,161.5,413.5,31.5,433.5,31.5"></path><path id="kity_path_35" fill="none" stroke="rgb(115, 161, 191)" stroke-width="1" d="M482.5,31.5C502.5,31.5,502.5,31.5,522.5,31.5"></path><path id="kity_path_37" fill="none" stroke="rgb(115, 161, 191)" stroke-width="1" d="M393.5,161.5C413.5,161.5,413.5,83.5,433.5,83.5"></path><path id="kity_path_39" fill="none" stroke="rgb(115, 161, 191)" stroke-width="1" d="M393.5,161.5C413.5,161.5,413.5,135.5,433.5,135.5"></path><path id="kity_path_41" fill="none" stroke="rgb(115, 161, 191)" stroke-width="1" d="M393.5,161.5C413.5,161.5,413.5,187.5,433.5,187.5"></path><path id="kity_path_43" fill="none" stroke="rgb(115, 161, 191)" stroke-width="1" d="M393.5,161.5C413.5,161.5,413.5,239.5,433.5,239.5"></path><path id="kity_path_45" fill="none" stroke="rgb(115, 161, 191)" stroke-width="1" d="M393.5,161.5C413.5,161.5,413.5,291.5,433.5,291.5"></path><path id="kity_path_47" fill="none" stroke="rgb(115, 161, 191)" stroke-width="1" d="M104.5,522.5A202,167,0,0,1,306.5,355.5"></path><path id="kity_path_49" fill="none" stroke="rgb(115, 161, 191)" stroke-width="1" d="M434.5,355.5C454.5,355.5,454.5,355.5,474.5,355.5"></path><path id="kity_path_51" fill="none" stroke="rgb(115, 161, 191)" stroke-width="1" d="M104.5,522.5A202,101,0,0,1,306.5,421.5"></path><path id="kity_path_53" fill="none" stroke="rgb(115, 161, 191)" stroke-width="1" d="M104.5,522.5A202,15,0,0,0,306.5,537.5"></path><path id="kity_path_55" fill="none" stroke="rgb(115, 161, 191)" stroke-width="1" d="M504.5,537.5C524.5,537.5,524.5,485.5,544.5,485.5"></path><path id="kity_path_57" fill="none" stroke="rgb(115, 161, 191)" stroke-width="1" d="M504.5,537.5C524.5,537.5,524.5,537.5,544.5,537.5"></path><path id="kity_path_59" fill="none" stroke="rgb(115, 161, 191)" stroke-width="1" d="M504.5,537.5C524.5,537.5,524.5,589.5,544.5,589.5"></path><path id="kity_path_61" fill="none" stroke="rgb(115, 161, 191)" stroke-width="1" d="M104.5,522.5A202,131,0,0,0,306.5,653.5"></path><path id="kity_path_63" fill="none" stroke="rgb(115, 161, 191)" stroke-width="1" d="M475.5,653.5C747.5,653.5,747.5,657.5,1019.5,657.5"></path><path id="kity_path_65" fill="none" stroke="rgb(115, 161, 191)" stroke-width="1" d="M104.5,522.5A202,221,0,0,0,306.5,743.5"></path><path id="kity_path_67" fill="none" stroke="rgb(115, 161, 191)" stroke-width="1" d="M447.5,743.5C467.5,743.5,467.5,717.5,487.5,717.5"></path><path id="kity_path_69" fill="none" stroke="rgb(115, 161, 191)" stroke-width="1" d="M447.5,743.5C467.5,743.5,467.5,769.5,487.5,769.5"></path><path id="kity_path_71" fill="none" stroke="rgb(115, 161, 191)" stroke-width="1" d="M104.5,522.5A202,361,0,0,0,306.5,883.5"></path><path id="kity_path_73" fill="none" stroke="rgb(115, 161, 191)" stroke-width="1" d="M484.5,883.5C504.5,883.5,504.5,831.5,524.5,831.5"></path><path id="kity_path_75" fill="none" stroke="rgb(115, 161, 191)" stroke-width="1" d="M484.5,883.5C504.5,883.5,504.5,883.5,524.5,883.5"></path><path id="kity_path_77" fill="none" stroke="rgb(115, 161, 191)" stroke-width="1" d="M484.5,883.5C504.5,883.5,504.5,935.5,524.5,935.5"></path></g><g id="minder_node1"><path id="node_outline1" fill="rgb(115, 161, 191)" stroke="rgb(57, 80, 96)" d="M25.5,502.5h158a5,5,0,0,1,5,5v30a5,5,0,0,1,-5,5h-158a5,5,0,0,1,-5,-5v-30a5,5,0,0,1,5,-5z" stroke-width="3"></path><g id="node_text1" fill="white"><text id="kity_text_22" text-rendering="inherit" font-size="16" dy=".8em" y="512.0999999046326" x="44.5">APUE_Chapter3</text></g></g><g id="kity_g_12"><path id="kity_path_13" fill="none" stroke="none" d="M44.5,522.5h0v0h0z"></path></g><g id="kity_g_14"><path id="kity_path_15" fill="none" stroke="none" d="M44.5,522.5h0v0h0z"></path><path id="kity_path_16" fill="none" stroke="none"></path></g><g id="minder_node2"><g id="node_expander8" style="cursor: pointer;"><path id="kity_path_172" fill="white" stroke="gray" d="M307.5,161.5A6,6,0,1,1,295.5,161.5A6,6,0,1,1,307.5,161.5"></path><path id="kity_path_173" fill="none" stroke="gray" d="M297,161.5L306,161.5"></path></g><path id="node_outline9" fill="rgb(238, 243, 246)" stroke="rgb(115, 161, 191)" d="M311.5,148.5h79a3,3,0,0,1,3,3v20a3,3,0,0,1,-3,3h-79a3,3,0,0,1,-3,-3v-20a3,3,0,0,1,3,-3z" stroke-width="1"></path><g id="node_text9" fill="black"><text id="kity_text_93" text-rendering="inherit" font-size="14" dy=".8em" y="152.40000009536743" x="328.5">文件IO</text></g></g><g id="minder_node3"><g id="node_expander2" style="cursor: pointer;"><path id="kity_path_154" fill="white" stroke="gray" d="M433.5,31.5A6,6,0,1,1,421.5,31.5A6,6,0,1,1,433.5,31.5"></path><path id="kity_path_155" fill="none" stroke="gray" d="M423,31.5L432,31.5"></path></g><path id="node_outline3" fill="none" stroke="none" d="M438.5,20.5h39a5,5,0,0,1,5,5v12a5,5,0,0,1,-5,5h-39a5,5,0,0,1,-5,-5v-12a5,5,0,0,1,5,-5z"></path><g id="node_text3" fill="black"><text id="kity_text_81" text-rendering="inherit" font-size="12" dy=".8em" y="23.700000047683716" x="443.5">open</text></g></g><g id="minder_node4"><g id="node_expander1" style="cursor: pointer;" display="none"><path id="kity_path_151" fill="white" stroke="gray" d="M522.5,31.5A6,6,0,1,1,510.5,31.5A6,6,0,1,1,522.5,31.5"></path><path id="kity_path_152" fill="none" stroke="gray"></path></g><path id="node_outline2" fill="none" stroke="none" d="M527.5,20.5h96a5,5,0,0,1,5,5v12a5,5,0,0,1,-5,5h-96a5,5,0,0,1,-5,-5v-12a5,5,0,0,1,5,-5z"></path><g id="node_text2" fill="black"><text id="kity_text_79" text-rendering="inherit" font-size="12" dy=".8em" y="23.700000047683716" x="532.5">文件的打开模式</text></g></g><g id="minder_node5"><g id="node_expander3" style="cursor: pointer;" display="none"><path id="kity_path_157" fill="white" stroke="gray" d="M433.5,83.5A6,6,0,1,1,421.5,83.5A6,6,0,1,1,433.5,83.5"></path><path id="kity_path_158" fill="none" stroke="gray"></path></g><path id="node_outline4" fill="none" stroke="none" d="M438.5,72.5h46a5,5,0,0,1,5,5v12a5,5,0,0,1,-5,5h-46a5,5,0,0,1,-5,-5v-12a5,5,0,0,1,5,-5z"></path><g id="node_text4" fill="black"><text id="kity_text_83" text-rendering="inherit" font-size="12" dy=".8em" y="75.70000004768372" x="443.5">create</text></g></g><g id="minder_node6"><g id="node_expander4" style="cursor: pointer;" display="none"><path id="kity_path_160" fill="white" stroke="gray" d="M433.5,135.5A6,6,0,1,1,421.5,135.5A6,6,0,1,1,433.5,135.5"></path><path id="kity_path_161" fill="none" stroke="gray"></path></g><path id="node_outline5" fill="none" stroke="none" d="M438.5,124.5h36a5,5,0,0,1,5,5v12a5,5,0,0,1,-5,5h-36a5,5,0,0,1,-5,-5v-12a5,5,0,0,1,5,-5z"></path><g id="node_text5" fill="black"><text id="kity_text_85" text-rendering="inherit" font-size="12" dy=".8em" y="127.70000004768372" x="443.5">read</text></g></g><g id="minder_node7"><g id="node_expander5" style="cursor: pointer;" display="none"><path id="kity_path_163" fill="white" stroke="gray" d="M433.5,187.5A6,6,0,1,1,421.5,187.5A6,6,0,1,1,433.5,187.5"></path><path id="kity_path_164" fill="none" stroke="gray"></path></g><path id="node_outline6" fill="none" stroke="none" d="M438.5,176.5h40a5,5,0,0,1,5,5v12a5,5,0,0,1,-5,5h-40a5,5,0,0,1,-5,-5v-12a5,5,0,0,1,5,-5z"></path><g id="node_text6" fill="black"><text id="kity_text_87" text-rendering="inherit" font-size="12" dy=".8em" y="179.70000004768372" x="443.5">write</text></g></g><g id="minder_node8"><g id="node_expander6" style="cursor: pointer;" display="none"><path id="kity_path_166" fill="white" stroke="gray" d="M433.5,239.5A6,6,0,1,1,421.5,239.5A6,6,0,1,1,433.5,239.5"></path><path id="kity_path_167" fill="none" stroke="gray"></path></g><path id="node_outline7" fill="none" stroke="none" d="M438.5,228.5h39a5,5,0,0,1,5,5v12a5,5,0,0,1,-5,5h-39a5,5,0,0,1,-5,-5v-12a5,5,0,0,1,5,-5z"></path><g id="node_text7" fill="black"><text id="kity_text_89" text-rendering="inherit" font-size="12" dy=".8em" y="231.70000004768372" x="443.5">lseek</text></g></g><g id="minder_node9"><g id="node_expander7" style="cursor: pointer;" display="none"><path id="kity_path_169" fill="white" stroke="gray" d="M433.5,291.5A6,6,0,1,1,421.5,291.5A6,6,0,1,1,433.5,291.5"></path><path id="kity_path_170" fill="none" stroke="gray"></path></g><path id="node_outline8" fill="none" stroke="none" d="M438.5,280.5h39a5,5,0,0,1,5,5v12a5,5,0,0,1,-5,5h-39a5,5,0,0,1,-5,-5v-12a5,5,0,0,1,5,-5z"></path><g id="node_text8" fill="black"><text id="kity_text_91" text-rendering="inherit" font-size="12" dy=".8em" y="283.7000000476837" x="443.5">close</text></g></g><g id="minder_node10"><g id="node_expander10" style="cursor: pointer;"><path id="kity_path_178" fill="white" stroke="gray" d="M307.5,355.5A6,6,0,1,1,295.5,355.5A6,6,0,1,1,307.5,355.5"></path><path id="kity_path_179" fill="none" stroke="gray" d="M297,355.5L306,355.5"></path></g><path id="node_outline11" fill="rgb(238, 243, 246)" stroke="rgb(115, 161, 191)" d="M311.5,342.5h120a3,3,0,0,1,3,3v20a3,3,0,0,1,-3,3h-120a3,3,0,0,1,-3,-3v-20a3,3,0,0,1,3,-3z" stroke-width="1"></path><g id="node_text11" fill="black"><text id="kity_text_97" text-rendering="inherit" font-size="14" dy=".8em" y="346.40000009536743" x="328.5">文件属性设置</text></g></g><g id="minder_node11"><g id="node_expander9" style="cursor: pointer;" display="none"><path id="kity_path_175" fill="white" stroke="gray" d="M474.5,355.5A6,6,0,1,1,462.5,355.5A6,6,0,1,1,474.5,355.5"></path><path id="kity_path_176" fill="none" stroke="gray"></path></g><path id="node_outline10" fill="none" stroke="none" d="M479.5,344.5h35a5,5,0,0,1,5,5v12a5,5,0,0,1,-5,5h-35a5,5,0,0,1,-5,-5v-12a5,5,0,0,1,5,-5z"></path><g id="node_text10" fill="black"><text id="kity_text_95" text-rendering="inherit" font-size="12" dy=".8em" y="347.7000000476837" x="484.5">fcntl</text></g></g><g id="minder_node12"><g id="node_expander11" style="cursor: pointer;" display="none"><path id="kity_path_181" fill="white" stroke="gray" d="M307.5,421.5A6,6,0,1,1,295.5,421.5A6,6,0,1,1,307.5,421.5"></path><path id="kity_path_182" fill="none" stroke="gray"></path></g><path id="node_outline12" fill="rgb(238, 243, 246)" stroke="rgb(115, 161, 191)" d="M311.5,408.5h371a3,3,0,0,1,3,3v20a3,3,0,0,1,-3,3h-371a3,3,0,0,1,-3,-3v-20a3,3,0,0,1,3,-3z" stroke-width="1"></path><g id="node_text12" fill="black"><text id="kity_text_99" text-rendering="inherit" font-size="14" dy=".8em" y="412.40000009536743" x="328.5">多进程操作文件会遇到的问题以及unix提供的原子操作</text></g></g><g id="minder_node13"><g id="node_expander15" style="cursor: pointer;"><path id="kity_path_193" fill="white" stroke="gray" d="M307.5,537.5A6,6,0,1,1,295.5,537.5A6,6,0,1,1,307.5,537.5"></path><path id="kity_path_194" fill="none" stroke="gray" d="M297,537.5L306,537.5"></path></g><path id="node_outline16" fill="rgb(238, 243, 246)" stroke="rgb(115, 161, 191)" d="M311.5,524.5h190a3,3,0,0,1,3,3v20a3,3,0,0,1,-3,3h-190a3,3,0,0,1,-3,-3v-20a3,3,0,0,1,3,-3z" stroke-width="1"></path><g id="node_text16" fill="black"><text id="kity_text_107" text-rendering="inherit" font-size="14" dy=".8em" y="528.4000000953674" x="328.5">文件在内核中的表现形式</text></g></g><g id="minder_node14"><g id="node_expander12" style="cursor: pointer;" display="none"><path id="kity_path_184" fill="white" stroke="gray" d="M544.5,485.5A6,6,0,1,1,532.5,485.5A6,6,0,1,1,544.5,485.5"></path><path id="kity_path_185" fill="none" stroke="gray"></path></g><path id="node_outline13" fill="none" stroke="none" d="M549.5,474.5h295a5,5,0,0,1,5,5v12a5,5,0,0,1,-5,5h-295a5,5,0,0,1,-5,-5v-12a5,5,0,0,1,5,-5z"></path><g id="node_text13" fill="black"><text id="kity_text_101" text-rendering="inherit" font-size="12" dy=".8em" y="477.7000000476837" x="554.5">进程表(里面存储文件描述符以及指向文件表项的指针)</text></g></g><g id="minder_node15"><g id="node_expander13" style="cursor: pointer;" display="none"><path id="kity_path_187" fill="white" stroke="gray" d="M544.5,537.5A6,6,0,1,1,532.5,537.5A6,6,0,1,1,544.5,537.5"></path><path id="kity_path_188" fill="none" stroke="gray"></path></g><path id="node_outline14" fill="none" stroke="none" d="M549.5,526.5h277a5,5,0,0,1,5,5v12a5,5,0,0,1,-5,5h-277a5,5,0,0,1,-5,-5v-12a5,5,0,0,1,5,-5z"></path><g id="node_text14" fill="black"><text id="kity_text_103" text-rendering="inherit" font-size="12" dy=".8em" y="529.7000000476837" x="554.5">文件表(文件状态，文件偏移量和指向v节点的指针)</text></g></g><g id="minder_node16"><g id="node_expander14" style="cursor: pointer;" display="none"><path id="kity_path_190" fill="white" stroke="gray" d="M544.5,589.5A6,6,0,1,1,532.5,589.5A6,6,0,1,1,544.5,589.5"></path><path id="kity_path_191" fill="none" stroke="gray"></path></g><path id="node_outline15" fill="none" stroke="none" d="M549.5,578.5h305a5,5,0,0,1,5,5v12a5,5,0,0,1,-5,5h-305a5,5,0,0,1,-5,-5v-12a5,5,0,0,1,5,-5z"></path><g id="node_text15" fill="black"><text id="kity_text_105" text-rendering="inherit" font-size="12" dy=".8em" y="581.7000000476837" x="554.5">v节点表(文件类型，操作文件的指针和指向i节点的指针)</text></g></g><g id="minder_node17"><g id="node_expander17" style="cursor: pointer;"><path id="kity_path_199" fill="white" stroke="gray" d="M307.5,653.5A6,6,0,1,1,295.5,653.5A6,6,0,1,1,307.5,653.5"></path><path id="kity_path_200" fill="none" stroke="gray" d="M297,653.5L306,653.5"></path></g><path id="node_outline18" fill="rgb(238, 243, 246)" stroke="rgb(115, 161, 191)" d="M311.5,640.5h161a3,3,0,0,1,3,3v20a3,3,0,0,1,-3,3h-161a3,3,0,0,1,-3,-3v-20a3,3,0,0,1,3,-3z" stroke-width="1"></path><g id="node_text18" fill="black"><text id="kity_text_111" text-rendering="inherit" font-size="14" dy=".8em" y="644.4000000953674" x="328.5">文件的预读与延迟写</text></g></g><g id="minder_node18"><g id="node_expander16" style="cursor: pointer;" display="none"><path id="kity_path_196" fill="white" stroke="gray" d="M1019.5,657.5A6,6,0,1,1,1007.5,657.5A6,6,0,1,1,1019.5,657.5"></path><path id="kity_path_197" fill="none" stroke="gray"></path></g><path id="node_outline17" fill="none" stroke="none" d="M1024.5,646.5h256a5,5,0,0,1,5,5v12a5,5,0,0,1,-5,5h-256a5,5,0,0,1,-5,-5v-12a5,5,0,0,1,5,-5z"></path><g id="node_text17" fill="black"><text id="kity_text_109" text-rendering="inherit" font-size="12" dy=".8em" y="649.7000000476837" x="1029.5">操作系统写文件的流程，缓冲区-&gt;队列-&gt;磁盘</text></g></g><g id="minder_node19"><g id="node_expander20" style="cursor: pointer;"><path id="kity_path_208" fill="white" stroke="gray" d="M307.5,743.5A6,6,0,1,1,295.5,743.5A6,6,0,1,1,307.5,743.5"></path><path id="kity_path_209" fill="none" stroke="gray" d="M297,743.5L306,743.5"></path></g><path id="node_outline21" fill="rgb(238, 243, 246)" stroke="rgb(115, 161, 191)" d="M311.5,730.5h133a3,3,0,0,1,3,3v20a3,3,0,0,1,-3,3h-133a3,3,0,0,1,-3,-3v-20a3,3,0,0,1,3,-3z" stroke-width="1"></path><g id="node_text21" fill="black"><text id="kity_text_117" text-rendering="inherit" font-size="14" dy=".8em" y="734.4000000953674" x="328.5">文件描述符复制</text></g></g><g id="minder_node20"><g id="node_expander18" style="cursor: pointer;" display="none"><path id="kity_path_202" fill="white" stroke="gray" d="M487.5,717.5A6,6,0,1,1,475.5,717.5A6,6,0,1,1,487.5,717.5"></path><path id="kity_path_203" fill="none" stroke="gray"></path></g><path id="node_outline19" fill="none" stroke="none" d="M492.5,706.5h26a5,5,0,0,1,5,5v12a5,5,0,0,1,-5,5h-26a5,5,0,0,1,-5,-5v-12a5,5,0,0,1,5,-5z"></path><g id="node_text19" fill="black"><text id="kity_text_113" text-rendering="inherit" font-size="12" dy=".8em" y="709.7000000476837" x="497.5">dp</text></g></g><g id="minder_node21"><g id="node_expander19" style="cursor: pointer;" display="none"><path id="kity_path_205" fill="white" stroke="gray" d="M487.5,769.5A6,6,0,1,1,475.5,769.5A6,6,0,1,1,487.5,769.5"></path><path id="kity_path_206" fill="none" stroke="gray"></path></g><path id="node_outline20" fill="none" stroke="none" d="M492.5,758.5h32a5,5,0,0,1,5,5v12a5,5,0,0,1,-5,5h-32a5,5,0,0,1,-5,-5v-12a5,5,0,0,1,5,-5z"></path><g id="node_text20" fill="black"><text id="kity_text_115" text-rendering="inherit" font-size="12" dy=".8em" y="761.7000000476837" x="497.5">dp2</text></g></g><g id="minder_node22"><g id="node_expander24" style="cursor: pointer;"><path id="kity_path_220" fill="white" stroke="gray" d="M307.5,883.5A6,6,0,1,1,295.5,883.5A6,6,0,1,1,307.5,883.5"></path><path id="kity_path_221" fill="none" stroke="gray" d="M297,883.5L306,883.5"></path></g><path id="node_outline25" fill="rgb(238, 243, 246)" stroke="rgb(115, 161, 191)" d="M311.5,870.5h170a3,3,0,0,1,3,3v20a3,3,0,0,1,-3,3h-170a3,3,0,0,1,-3,-3v-20a3,3,0,0,1,3,-3z" stroke-width="1"></path><g id="node_text25" fill="black"><text id="kity_text_125" text-rendering="inherit" font-size="14" dy=".8em" y="874.4000000953674" x="328.5">sync fsync fdatasync</text></g></g><g id="minder_node23"><g id="node_expander21" style="cursor: pointer;" display="none"><path id="kity_path_211" fill="white" stroke="gray" d="M524.5,831.5A6,6,0,1,1,512.5,831.5A6,6,0,1,1,524.5,831.5"></path><path id="kity_path_212" fill="none" stroke="gray"></path></g><path id="node_outline22" fill="none" stroke="none" d="M529.5,820.5h235a5,5,0,0,1,5,5v12a5,5,0,0,1,-5,5h-235a5,5,0,0,1,-5,-5v-12a5,5,0,0,1,5,-5z"></path><g id="node_text22" fill="black"><text id="kity_text_119" text-rendering="inherit" font-size="12" dy=".8em" y="823.7000000476837" x="534.5">sync(把数据从从高速缓冲区刷入队列返回)</text></g></g><g id="minder_node24"><g id="node_expander22" style="cursor: pointer;" display="none"><path id="kity_path_214" fill="white" stroke="gray" d="M524.5,883.5A6,6,0,1,1,512.5,883.5A6,6,0,1,1,524.5,883.5"></path><path id="kity_path_215" fill="none" stroke="gray"></path></g><path id="node_outline23" fill="none" stroke="none" d="M529.5,872.5h299a5,5,0,0,1,5,5v12a5,5,0,0,1,-5,5h-299a5,5,0,0,1,-5,-5v-12a5,5,0,0,1,5,-5z"></path><g id="node_text23" fill="black"><text id="kity_text_121" text-rendering="inherit" font-size="12" dy=".8em" y="875.7000000476837" x="534.5">fsync(强制把数据刷入磁盘后再返回可以设置文件属性)</text></g></g><g id="minder_node25"><g id="node_expander23" style="cursor: pointer;" display="none"><path id="kity_path_217" fill="white" stroke="gray" d="M524.5,935.5A6,6,0,1,1,512.5,935.5A6,6,0,1,1,524.5,935.5"></path><path id="kity_path_218" fill="none" stroke="gray"></path></g><path id="node_outline24" fill="none" stroke="none" d="M529.5,924.5h301a5,5,0,0,1,5,5v12a5,5,0,0,1,-5,5h-301a5,5,0,0,1,-5,-5v-12a5,5,0,0,1,5,-5z"></path><g id="node_text24" fill="black"><text id="kity_text_123" text-rendering="inherit" font-size="12" dy=".8em" y="927.7000000476837" x="534.5">fdatasync(强制把数据刷入磁盘后再返回只能操作数据)</text></g></g></g></g></svg>