<svg id="kity_svg_6" xmlns="http://www.w3.org/2000/svg" xmlns:xlink="http://www.w3.org/1999/xlink" version="1.1" width="860" height="820" style="background: rgb(251, 251, 251); visibility: visible;" viewBox="0 0 860 820"><defs id="kity_defs_7"><linearGradient id="kity_linearGradient_17" x1="0" y1="0" x2="0" y2="1"><stop id="kity_stop_18" offset="0" stop-color="rgb(255, 255, 255)"></stop><stop id="kity_stop_19" offset="1" stop-color="rgb(204, 204, 204)"></stop></linearGradient><marker id="kity_marker_2" orient="auto" refX="6" refY="0" viewBox="-7 -7 14 14" markerWidth="7" markerHeight="7" markerUnits="userSpaceOnUse"><path id="kity_path_3" fill="rgb(115, 161, 191)" stroke="none" d="M6,0A6,6,0,1,1,-6,0A6,6,0,1,1,6,0"></path></marker></defs><g id="kity_g_8"><g id="minder1" text-rendering="optimize-speed"><g id="minder_connect_group1"><path id="kity_path_31" fill="none" stroke="rgb(115, 161, 191)" stroke-width="1" d="M85.5,423.5A183,340,0,0,1,268.5,83.5"></path><path id="kity_path_39" fill="none" stroke="rgb(115, 161, 191)" stroke-width="1" d="M368.5,83.5C388.5,83.5,388.5,31.5,408.5,31.5"></path><path id="kity_path_47" fill="none" stroke="rgb(115, 161, 191)" stroke-width="1" d="M368.5,83.5C388.5,83.5,388.5,83.5,408.5,83.5"></path><path id="kity_path_55" fill="none" stroke="rgb(115, 161, 191)" stroke-width="1" d="M368.5,83.5C388.5,83.5,388.5,135.5,408.5,135.5"></path><path id="kity_path_63" fill="none" stroke="rgb(115, 161, 191)" stroke-width="1" d="M490.5,31.5C510.5,31.5,510.5,31.5,530.5,31.5"></path><path id="kity_path_71" fill="none" stroke="rgb(115, 161, 191)" stroke-width="1" d="M490.5,83.5C510.5,83.5,510.5,83.5,530.5,83.5"></path><path id="kity_path_79" fill="none" stroke="rgb(115, 161, 191)" stroke-width="1" d="M490.5,135.5C510.5,135.5,510.5,135.5,530.5,135.5"></path><path id="kity_path_87" fill="none" stroke="rgb(115, 161, 191)" stroke-width="1" d="M85.5,423.5A183,200,0,0,1,268.5,223.5"></path><path id="kity_path_95" fill="none" stroke="rgb(115, 161, 191)" stroke-width="1" d="M367.5,223.5C387.5,223.5,387.5,197.5,407.5,197.5"></path><path id="kity_path_103" fill="none" stroke="rgb(115, 161, 191)" stroke-width="1" d="M367.5,223.5C387.5,223.5,387.5,249.5,407.5,249.5"></path><path id="kity_path_111" fill="none" stroke="rgb(115, 161, 191)" stroke-width="1" d="M476.5,197.5C496.5,197.5,496.5,197.5,516.5,197.5"></path><path id="kity_path_119" fill="none" stroke="rgb(115, 161, 191)" stroke-width="1" d="M85.5,423.5A183,70,0,0,0,268.5,493.5"></path><path id="kity_path_127" fill="none" stroke="rgb(115, 161, 191)" stroke-width="1" d="M367.5,493.5C387.5,493.5,387.5,337.5,407.5,337.5"></path><path id="kity_path_135" fill="none" stroke="rgb(115, 161, 191)" stroke-width="1" d="M367.5,493.5C387.5,493.5,387.5,441.5,407.5,441.5"></path><path id="kity_path_143" fill="none" stroke="rgb(115, 161, 191)" stroke-width="1" d="M367.5,493.5C387.5,493.5,387.5,545.5,407.5,545.5"></path><path id="kity_path_151" fill="none" stroke="rgb(115, 161, 191)" stroke-width="1" d="M367.5,493.5C387.5,493.5,387.5,649.5,407.5,649.5"></path><path id="kity_path_159" fill="none" stroke="rgb(115, 161, 191)" stroke-width="1" d="M477.5,337.5C497.5,337.5,497.5,311.5,517.5,311.5"></path><path id="kity_path_167" fill="none" stroke="rgb(115, 161, 191)" stroke-width="1" d="M477.5,337.5C497.5,337.5,497.5,363.5,517.5,363.5"></path><path id="kity_path_175" fill="none" stroke="rgb(115, 161, 191)" stroke-width="1" d="M477.5,441.5C497.5,441.5,497.5,415.5,517.5,415.5"></path><path id="kity_path_183" fill="none" stroke="rgb(115, 161, 191)" stroke-width="1" d="M477.5,441.5C497.5,441.5,497.5,467.5,517.5,467.5"></path><path id="kity_path_191" fill="none" stroke="rgb(115, 161, 191)" stroke-width="1" d="M476.5,545.5C496.5,545.5,496.5,519.5,516.5,519.5"></path><path id="kity_path_199" fill="none" stroke="rgb(115, 161, 191)" stroke-width="1" d="M476.5,545.5C496.5,545.5,496.5,571.5,516.5,571.5"></path><path id="kity_path_207" fill="none" stroke="rgb(115, 161, 191)" stroke-width="1" d="M477.5,649.5C497.5,649.5,497.5,623.5,517.5,623.5"></path><path id="kity_path_215" fill="none" stroke="rgb(115, 161, 191)" stroke-width="1" d="M477.5,649.5C497.5,649.5,497.5,675.5,517.5,675.5"></path><path id="kity_path_223" fill="none" stroke="rgb(115, 161, 191)" stroke-width="1" d="M85.5,423.5A183,340,0,0,0,268.5,763.5"></path><path id="kity_path_231" fill="none" stroke="rgb(115, 161, 191)" stroke-width="1" d="M368.5,763.5C388.5,763.5,388.5,737.5,408.5,737.5"></path><path id="kity_path_239" fill="none" stroke="rgb(115, 161, 191)" stroke-width="1" d="M368.5,763.5C388.5,763.5,388.5,789.5,408.5,789.5"></path><path id="kity_path_247" fill="none" stroke="rgb(115, 161, 191)" stroke-width="1" d="M478.5,737.5C498.5,737.5,498.5,737.5,518.5,737.5"></path><path id="kity_path_255" fill="none" stroke="rgb(115, 161, 191)" stroke-width="1" d="M478.5,789.5C498.5,789.5,498.5,789.5,518.5,789.5"></path></g><g id="minder_node1"><path id="node_outline1" fill="rgb(115, 161, 191)" stroke="rgb(115, 161, 191)" d="M25.5,403.5h120a5,5,0,0,1,5,5v30a5,5,0,0,1,-5,5h-120a5,5,0,0,1,-5,-5v-30a5,5,0,0,1,5,-5z" stroke-width="3"></path><g id="node_text1" fill="white"><text id="kity_text_22" text-rendering="inherit" font-size="16" dy=".8em" y="413.09999990463257" x="44.5">基金的分类</text></g></g><g id="kity_g_12" display="none"><path id="kity_path_13" fill="none" stroke="none" d="M44.5,423.5h0v0h0z"></path></g><g id="kity_g_14" display="none"><path id="kity_path_15" fill="none" stroke="none" d="M44.5,423.5h0v0h0z"></path><path id="kity_path_16" fill="none" stroke="none"></path></g><g id="minder_node2"><g id="node_expander1" style="cursor: pointer;"><path id="kity_path_36" fill="white" stroke="gray" d="M269.5,83.5A6,6,0,1,1,257.5,83.5A6,6,0,1,1,269.5,83.5"></path><path id="kity_path_37" fill="none" stroke="gray" d="M259,83.5L268,83.5"></path></g><path id="node_outline2" fill="rgb(238, 243, 246)" stroke="rgb(115, 161, 191)" d="M273.5,70.5h92a3,3,0,0,1,3,3v20a3,3,0,0,1,-3,3h-92a3,3,0,0,1,-3,-3v-20a3,3,0,0,1,3,-3z" stroke-width="1"></path><g id="node_text2" fill="black"><text id="kity_text_33" text-rendering="inherit" font-size="14" dy=".8em" y="74.40000009536743" x="290.5">运作方式</text></g></g><g id="minder_node3"><g id="node_expander2" style="cursor: pointer;"><path id="kity_path_44" fill="white" stroke="gray" d="M408.5,31.5A6,6,0,1,1,396.5,31.5A6,6,0,1,1,408.5,31.5"></path><path id="kity_path_45" fill="none" stroke="gray" d="M398,31.5L407,31.5"></path></g><path id="node_outline3" fill="none" stroke="none" d="M413.5,20.5h72a5,5,0,0,1,5,5v12a5,5,0,0,1,-5,5h-72a5,5,0,0,1,-5,-5v-12a5,5,0,0,1,5,-5z" stroke-width="3"></path><g id="node_text3" fill="black"><text id="kity_text_41" text-rendering="inherit" font-size="12" dy=".8em" y="23.700000047683716" x="418.5">开发型基金</text></g></g><g id="minder_node4"><g id="node_expander3" style="cursor: pointer;"><path id="kity_path_52" fill="white" stroke="gray" d="M408.5,83.5A6,6,0,1,1,396.5,83.5A6,6,0,1,1,408.5,83.5"></path><path id="kity_path_53" fill="none" stroke="gray" d="M398,83.5L407,83.5"></path></g><path id="node_outline4" fill="none" stroke="none" d="M413.5,72.5h72a5,5,0,0,1,5,5v12a5,5,0,0,1,-5,5h-72a5,5,0,0,1,-5,-5v-12a5,5,0,0,1,5,-5z" stroke-width="3"></path><g id="node_text4" fill="black"><text id="kity_text_49" text-rendering="inherit" font-size="12" dy=".8em" y="75.70000004768372" x="418.5">封闭式基金</text></g></g><g id="minder_node5"><g id="node_expander4" style="cursor: pointer;"><path id="kity_path_60" fill="white" stroke="gray" d="M408.5,135.5A6,6,0,1,1,396.5,135.5A6,6,0,1,1,408.5,135.5"></path><path id="kity_path_61" fill="none" stroke="gray" d="M398,135.5L407,135.5"></path></g><path id="node_outline5" fill="none" stroke="none" d="M413.5,124.5h72a5,5,0,0,1,5,5v12a5,5,0,0,1,-5,5h-72a5,5,0,0,1,-5,-5v-12a5,5,0,0,1,5,-5z" stroke-width="3"></path><g id="node_text5" fill="black"><text id="kity_text_57" text-rendering="inherit" font-size="12" dy=".8em" y="127.70000004768372" x="418.5">定开式基金</text></g></g><g id="minder_node6"><g id="node_expander5" style="cursor: pointer;" display="none"><path id="kity_path_68" fill="white" stroke="gray" d="M530.5,31.5A6,6,0,1,1,518.5,31.5A6,6,0,1,1,530.5,31.5"></path><path id="kity_path_69" fill="none" stroke="gray"></path></g><path id="node_outline6" fill="none" stroke="none" d="M535.5,20.5h252a5,5,0,0,1,5,5v12a5,5,0,0,1,-5,5h-252a5,5,0,0,1,-5,-5v-12a5,5,0,0,1,5,-5z" stroke-width="3"></path><g id="node_text6" fill="black"><text id="kity_text_65" text-rendering="inherit" font-size="12" dy=".8em" y="23.700000047683716" x="540.5">基金的规模可以随时变化，买的人多规模就大</text></g></g><g id="minder_node7"><g id="node_expander6" style="cursor: pointer;" display="none"><path id="kity_path_76" fill="white" stroke="gray" d="M530.5,83.5A6,6,0,1,1,518.5,83.5A6,6,0,1,1,530.5,83.5"></path><path id="kity_path_77" fill="none" stroke="gray"></path></g><path id="node_outline7" fill="none" stroke="none" d="M535.5,72.5h300a5,5,0,0,1,5,5v12a5,5,0,0,1,-5,5h-300a5,5,0,0,1,-5,-5v-12a5,5,0,0,1,5,-5z" stroke-width="3"></path><g id="node_text7" fill="black"><text id="kity_text_73" text-rendering="inherit" font-size="12" dy=".8em" y="75.70000004768372" x="540.5">资金募集成功后就进入封闭期，不再对外开放买卖基金</text></g></g><g id="minder_node8"><g id="node_expander7" style="cursor: pointer;" display="none"><path id="kity_path_84" fill="white" stroke="gray" d="M530.5,135.5A6,6,0,1,1,518.5,135.5A6,6,0,1,1,530.5,135.5"></path><path id="kity_path_85" fill="none" stroke="gray"></path></g><path id="node_outline8" fill="none" stroke="none" d="M535.5,124.5h216a5,5,0,0,1,5,5v12a5,5,0,0,1,-5,5h-216a5,5,0,0,1,-5,-5v-12a5,5,0,0,1,5,-5z" stroke-width="3"></path><g id="node_text8" fill="black"><text id="kity_text_81" text-rendering="inherit" font-size="12" dy=".8em" y="127.70000004768372" x="540.5">结合开放式和封闭式的优点，定期开放</text></g></g><g id="minder_node9"><g id="node_expander8" style="cursor: pointer;"><path id="kity_path_92" fill="white" stroke="gray" d="M269.5,223.5A6,6,0,1,1,257.5,223.5A6,6,0,1,1,269.5,223.5"></path><path id="kity_path_93" fill="none" stroke="gray" d="M259,223.5L268,223.5"></path></g><path id="node_outline9" fill="rgb(238, 243, 246)" stroke="rgb(115, 161, 191)" d="M273.5,210.5h91a3,3,0,0,1,3,3v20a3,3,0,0,1,-3,3h-91a3,3,0,0,1,-3,-3v-20a3,3,0,0,1,3,-3z" stroke-width="1"></path><g id="node_text9" fill="black"><text id="kity_text_89" text-rendering="inherit" font-size="14" dy=".8em" y="214.40000009536743" x="290.5">交易渠道</text></g></g><g id="minder_node10"><g id="node_expander9" style="cursor: pointer;"><path id="kity_path_100" fill="white" stroke="gray" d="M407.5,197.5A6,6,0,1,1,395.5,197.5A6,6,0,1,1,407.5,197.5"></path><path id="kity_path_101" fill="none" stroke="gray" d="M397,197.5L406,197.5"></path></g><path id="node_outline10" fill="none" stroke="none" d="M412.5,186.5h59a5,5,0,0,1,5,5v12a5,5,0,0,1,-5,5h-59a5,5,0,0,1,-5,-5v-12a5,5,0,0,1,5,-5z" stroke-width="3"></path><g id="node_text10" fill="black"><text id="kity_text_97" text-rendering="inherit" font-size="12" dy=".8em" y="189.70000004768372" x="417.5">场内交易</text></g></g><g id="minder_node11"><g id="node_expander10" style="cursor: pointer;" display="none"><path id="kity_path_108" fill="white" stroke="gray" d="M407.5,249.5A6,6,0,1,1,395.5,249.5A6,6,0,1,1,407.5,249.5"></path><path id="kity_path_109" fill="none" stroke="gray"></path></g><path id="node_outline11" fill="none" stroke="none" d="M412.5,238.5h59a5,5,0,0,1,5,5v12a5,5,0,0,1,-5,5h-59a5,5,0,0,1,-5,-5v-12a5,5,0,0,1,5,-5z" stroke-width="3"></path><g id="node_text11" fill="black"><text id="kity_text_105" text-rendering="inherit" font-size="12" dy=".8em" y="241.70000004768372" x="417.5">场外交易</text></g></g><g id="minder_node12"><g id="node_expander11" style="cursor: pointer;" display="none"><path id="kity_path_116" fill="white" stroke="gray" d="M516.5,197.5A6,6,0,1,1,504.5,197.5A6,6,0,1,1,516.5,197.5"></path><path id="kity_path_117" fill="none" stroke="gray"></path></g><path id="node_outline12" fill="none" stroke="none" d="M521.5,186.5h96a5,5,0,0,1,5,5v12a5,5,0,0,1,-5,5h-96a5,5,0,0,1,-5,-5v-12a5,5,0,0,1,5,-5z" stroke-width="3"></path><g id="node_text12" fill="black"><text id="kity_text_113" text-rendering="inherit" font-size="12" dy=".8em" y="189.70000004768372" x="526.5">交易费用比较低</text></g></g><g id="minder_node13"><g id="node_expander12" style="cursor: pointer;"><path id="kity_path_124" fill="white" stroke="gray" d="M269.5,493.5A6,6,0,1,1,257.5,493.5A6,6,0,1,1,269.5,493.5"></path><path id="kity_path_125" fill="none" stroke="gray" d="M259,493.5L268,493.5"></path></g><path id="node_outline13" fill="rgb(238, 243, 246)" stroke="rgb(115, 161, 191)" d="M273.5,480.5h91a3,3,0,0,1,3,3v20a3,3,0,0,1,-3,3h-91a3,3,0,0,1,-3,-3v-20a3,3,0,0,1,3,-3z" stroke-width="1"></path><g id="node_text13" fill="black"><text id="kity_text_121" text-rendering="inherit" font-size="14" dy=".8em" y="484.40000009536743" x="290.5">投资方向</text></g></g><g id="minder_node14"><g id="node_expander13" style="cursor: pointer;"><path id="kity_path_132" fill="white" stroke="gray" d="M407.5,337.5A6,6,0,1,1,395.5,337.5A6,6,0,1,1,407.5,337.5"></path><path id="kity_path_133" fill="none" stroke="gray" d="M397,337.5L406,337.5"></path></g><path id="node_outline14" fill="none" stroke="none" d="M412.5,326.5h60a5,5,0,0,1,5,5v12a5,5,0,0,1,-5,5h-60a5,5,0,0,1,-5,-5v-12a5,5,0,0,1,5,-5z" stroke-width="3"></path><g id="node_text14" fill="black"><text id="kity_text_129" text-rendering="inherit" font-size="12" dy=".8em" y="329.7000000476837" x="417.5">股票基金</text></g></g><g id="minder_node15"><g id="node_expander14" style="cursor: pointer;"><path id="kity_path_140" fill="white" stroke="gray" d="M407.5,441.5A6,6,0,1,1,395.5,441.5A6,6,0,1,1,407.5,441.5"></path><path id="kity_path_141" fill="none" stroke="gray" d="M397,441.5L406,441.5"></path></g><path id="node_outline15" fill="none" stroke="none" d="M412.5,430.5h60a5,5,0,0,1,5,5v12a5,5,0,0,1,-5,5h-60a5,5,0,0,1,-5,-5v-12a5,5,0,0,1,5,-5z" stroke-width="3"></path><g id="node_text15" fill="black"><text id="kity_text_137" text-rendering="inherit" font-size="12" dy=".8em" y="433.7000000476837" x="417.5">债券基金</text></g></g><g id="minder_node16"><g id="node_expander15" style="cursor: pointer;"><path id="kity_path_148" fill="white" stroke="gray" d="M407.5,545.5A6,6,0,1,1,395.5,545.5A6,6,0,1,1,407.5,545.5"></path><path id="kity_path_149" fill="none" stroke="gray" d="M397,545.5L406,545.5"></path></g><path id="node_outline16" fill="none" stroke="none" d="M412.5,534.5h59a5,5,0,0,1,5,5v12a5,5,0,0,1,-5,5h-59a5,5,0,0,1,-5,-5v-12a5,5,0,0,1,5,-5z" stroke-width="3"></path><g id="node_text16" fill="black"><text id="kity_text_145" text-rendering="inherit" font-size="12" dy=".8em" y="537.7000000476837" x="417.5">货币基金</text></g></g><g id="minder_node17"><g id="node_expander16" style="cursor: pointer;"><path id="kity_path_156" fill="white" stroke="gray" d="M407.5,649.5A6,6,0,1,1,395.5,649.5A6,6,0,1,1,407.5,649.5"></path><path id="kity_path_157" fill="none" stroke="gray" d="M397,649.5L406,649.5"></path></g><path id="node_outline17" fill="none" stroke="none" d="M412.5,638.5h60a5,5,0,0,1,5,5v12a5,5,0,0,1,-5,5h-60a5,5,0,0,1,-5,-5v-12a5,5,0,0,1,5,-5z" stroke-width="3"></path><g id="node_text17" fill="black"><text id="kity_text_153" text-rendering="inherit" font-size="12" dy=".8em" y="641.7000000476837" x="417.5">混合基金</text></g></g><g id="minder_node18" opacity="1"><g id="node_expander17" style="cursor: pointer;" display="none"><path id="kity_path_164" fill="white" stroke="gray" d="M517.5,311.5A6,6,0,1,1,505.5,311.5A6,6,0,1,1,517.5,311.5"></path><path id="kity_path_165" fill="none" stroke="gray"></path></g><path id="node_outline18" fill="none" stroke="none" d="M522.5,300.5h159a5,5,0,0,1,5,5v12a5,5,0,0,1,-5,5h-159a5,5,0,0,1,-5,-5v-12a5,5,0,0,1,5,-5z" stroke-width="3"></path><g id="node_text18" fill="black"><text id="kity_text_161" text-rendering="inherit" font-size="12" dy=".8em" y="303.7000000476837" x="527.5">用80%以上的资金投资股票&#xa0;</text></g></g><g id="minder_node19"><g id="node_expander18" style="cursor: pointer;" display="none"><path id="kity_path_172" fill="white" stroke="gray" d="M517.5,363.5A6,6,0,1,1,505.5,363.5A6,6,0,1,1,517.5,363.5"></path><path id="kity_path_173" fill="none" stroke="gray"></path></g><path id="node_outline19" fill="none" stroke="none" d="M522.5,352.5h144a5,5,0,0,1,5,5v12a5,5,0,0,1,-5,5h-144a5,5,0,0,1,-5,-5v-12a5,5,0,0,1,5,-5z" stroke-width="3"></path><g id="node_text19" fill="black"><text id="kity_text_169" text-rendering="inherit" font-size="12" dy=".8em" y="355.7000000476837" x="527.5">收益10%以上，风险较高</text></g></g><g id="minder_node20"><g id="node_expander19" style="cursor: pointer;" display="none"><path id="kity_path_180" fill="white" stroke="gray" d="M517.5,415.5A6,6,0,1,1,505.5,415.5A6,6,0,1,1,517.5,415.5"></path><path id="kity_path_181" fill="none" stroke="gray"></path></g><path id="node_outline20" fill="none" stroke="none" d="M522.5,404.5h157a5,5,0,0,1,5,5v12a5,5,0,0,1,-5,5h-157a5,5,0,0,1,-5,-5v-12a5,5,0,0,1,5,-5z" stroke-width="3"></path><g id="node_text20" fill="black"><text id="kity_text_177" text-rendering="inherit" font-size="12" dy=".8em" y="407.7000000476837" x="527.5">用80%以上的资金投资债券</text></g></g><g id="minder_node21"><g id="node_expander20" style="cursor: pointer;" display="none"><path id="kity_path_188" fill="white" stroke="gray" d="M517.5,467.5A6,6,0,1,1,505.5,467.5A6,6,0,1,1,517.5,467.5"></path><path id="kity_path_189" fill="none" stroke="gray"></path></g><path id="node_outline21" fill="none" stroke="none" d="M522.5,456.5h137a5,5,0,0,1,5,5v12a5,5,0,0,1,-5,5h-137a5,5,0,0,1,-5,-5v-12a5,5,0,0,1,5,-5z" stroke-width="3"></path><g id="node_text21" fill="black"><text id="kity_text_185" text-rendering="inherit" font-size="12" dy=".8em" y="459.7000000476837" x="527.5">收益6%左右，比较稳健</text></g></g><g id="minder_node22"><g id="node_expander21" style="cursor: pointer;" display="none"><path id="kity_path_196" fill="white" stroke="gray" d="M516.5,519.5A6,6,0,1,1,504.5,519.5A6,6,0,1,1,516.5,519.5"></path><path id="kity_path_197" fill="none" stroke="gray"></path></g><path id="node_outline22" fill="none" stroke="none" d="M521.5,508.5h143a5,5,0,0,1,5,5v12a5,5,0,0,1,-5,5h-143a5,5,0,0,1,-5,-5v-12a5,5,0,0,1,5,-5z" stroke-width="3"></path><g id="node_text22" fill="black"><text id="kity_text_193" text-rendering="inherit" font-size="12" dy=".8em" y="511.7000000476837" x="526.5">把钱都用来投资货币市场</text></g></g><g id="minder_node23"><g id="node_expander22" style="cursor: pointer;" display="none"><path id="kity_path_204" fill="white" stroke="gray" d="M516.5,571.5A6,6,0,1,1,504.5,571.5A6,6,0,1,1,516.5,571.5"></path><path id="kity_path_205" fill="none" stroke="gray"></path></g><path id="node_outline23" fill="none" stroke="none" d="M521.5,560.5h131a5,5,0,0,1,5,5v12a5,5,0,0,1,-5,5h-131a5,5,0,0,1,-5,-5v-12a5,5,0,0,1,5,-5z" stroke-width="3"></path><g id="node_text23" fill="black"><text id="kity_text_201" text-rendering="inherit" font-size="12" dy=".8em" y="563.7000000476837" x="526.5">收益高过银行定期存款</text></g></g><g id="minder_node24"><g id="node_expander23" style="cursor: pointer;" display="none"><path id="kity_path_212" fill="white" stroke="gray" d="M517.5,623.5A6,6,0,1,1,505.5,623.5A6,6,0,1,1,517.5,623.5"></path><path id="kity_path_213" fill="none" stroke="gray"></path></g><path id="node_outline24" fill="none" stroke="none" d="M522.5,612.5h180a5,5,0,0,1,5,5v12a5,5,0,0,1,-5,5h-180a5,5,0,0,1,-5,-5v-12a5,5,0,0,1,5,-5z" stroke-width="3"></path><g id="node_text24" fill="black"><text id="kity_text_209" text-rendering="inherit" font-size="12" dy=".8em" y="615.7000000476837" x="527.5">混合投资，比例由基金经理决定</text></g></g><g id="minder_node25"><g id="node_expander24" style="cursor: pointer;" display="none"><path id="kity_path_220" fill="white" stroke="gray" d="M517.5,675.5A6,6,0,1,1,505.5,675.5A6,6,0,1,1,517.5,675.5"></path><path id="kity_path_221" fill="none" stroke="gray"></path></g><path id="node_outline25" fill="none" stroke="none" d="M522.5,664.5h143a5,5,0,0,1,5,5v12a5,5,0,0,1,-5,5h-143a5,5,0,0,1,-5,-5v-12a5,5,0,0,1,5,-5z" stroke-width="3"></path><g id="node_text25" fill="black"><text id="kity_text_217" text-rendering="inherit" font-size="12" dy=".8em" y="667.7000000476837" x="527.5">风险介于股基和债基之间</text></g></g><g id="minder_node26"><g id="node_expander25" style="cursor: pointer;"><path id="kity_path_228" fill="white" stroke="gray" d="M269.5,763.5A6,6,0,1,1,257.5,763.5A6,6,0,1,1,269.5,763.5"></path><path id="kity_path_229" fill="none" stroke="gray" d="M259,763.5L268,763.5"></path></g><path id="node_outline26" fill="rgb(238, 243, 246)" stroke="rgb(115, 161, 191)" d="M273.5,750.5h92a3,3,0,0,1,3,3v20a3,3,0,0,1,-3,3h-92a3,3,0,0,1,-3,-3v-20a3,3,0,0,1,3,-3z" stroke-width="1"></path><g id="node_text26" fill="black"><text id="kity_text_225" text-rendering="inherit" font-size="14" dy=".8em" y="754.4000000953674" x="290.5">募集方式</text></g></g><g id="minder_node27"><g id="node_expander26" style="cursor: pointer;"><path id="kity_path_236" fill="white" stroke="gray" d="M408.5,737.5A6,6,0,1,1,396.5,737.5A6,6,0,1,1,408.5,737.5"></path><path id="kity_path_237" fill="none" stroke="gray" d="M398,737.5L407,737.5"></path></g><path id="node_outline27" fill="none" stroke="none" d="M413.5,726.5h60a5,5,0,0,1,5,5v12a5,5,0,0,1,-5,5h-60a5,5,0,0,1,-5,-5v-12a5,5,0,0,1,5,-5z" stroke-width="3"></path><g id="node_text27" fill="black"><text id="kity_text_233" text-rendering="inherit" font-size="12" dy=".8em" y="729.7000000476837" x="418.5">公募基金</text></g></g><g id="minder_node28"><g id="node_expander27" style="cursor: pointer;"><path id="kity_path_244" fill="white" stroke="gray" d="M408.5,789.5A6,6,0,1,1,396.5,789.5A6,6,0,1,1,408.5,789.5"></path><path id="kity_path_245" fill="none" stroke="gray" d="M398,789.5L407,789.5"></path></g><path id="node_outline28" fill="none" stroke="none" d="M413.5,778.5h60a5,5,0,0,1,5,5v12a5,5,0,0,1,-5,5h-60a5,5,0,0,1,-5,-5v-12a5,5,0,0,1,5,-5z" stroke-width="3"></path><g id="node_text28" fill="black"><text id="kity_text_241" text-rendering="inherit" font-size="12" dy=".8em" y="781.7000000476837" x="418.5">私募基金</text></g></g><g id="minder_node29"><g id="node_expander28" style="cursor: pointer;" display="none"><path id="kity_path_252" fill="white" stroke="gray" d="M518.5,737.5A6,6,0,1,1,506.5,737.5A6,6,0,1,1,518.5,737.5"></path><path id="kity_path_253" fill="none" stroke="gray"></path></g><path id="node_outline29" fill="none" stroke="none" d="M523.5,726.5h59a5,5,0,0,1,5,5v12a5,5,0,0,1,-5,5h-59a5,5,0,0,1,-5,-5v-12a5,5,0,0,1,5,-5z" stroke-width="3"></path><g id="node_text29" fill="black"><text id="kity_text_249" text-rendering="inherit" font-size="12" dy=".8em" y="729.7000000476837" x="528.5">面向大众</text></g></g><g id="minder_node30"><g id="node_expander29" style="cursor: pointer;" display="none"><path id="kity_path_260" fill="white" stroke="gray" d="M518.5,789.5A6,6,0,1,1,506.5,789.5A6,6,0,1,1,518.5,789.5"></path><path id="kity_path_261" fill="none" stroke="gray"></path></g><path id="node_outline30" fill="none" stroke="none" d="M523.5,778.5h155a5,5,0,0,1,5,5v12a5,5,0,0,1,-5,5h-155a5,5,0,0,1,-5,-5v-12a5,5,0,0,1,5,-5z" stroke-width="3"></path><g id="node_text30" fill="black"><text id="kity_text_257" text-rendering="inherit" font-size="12" dy=".8em" y="781.7000000476837" x="528.5">面向一小部分收入较高的人</text></g></g></g></g></svg>