<svg id="kity_svg_6" xmlns="http://www.w3.org/2000/svg" xmlns:xlink="http://www.w3.org/1999/xlink" version="1.1" width="1513" height="915" style="background: rgb(251, 251, 251); visibility: visible;" viewBox="0 0 1513 915"><defs id="kity_defs_7"><linearGradient id="kity_linearGradient_17" x1="0" y1="0" x2="0" y2="1"><stop id="kity_stop_18" offset="0" stop-color="rgb(255, 255, 255)"></stop><stop id="kity_stop_19" offset="1" stop-color="rgb(204, 204, 204)"></stop></linearGradient><marker id="kity_marker_2" orient="auto" refX="6" refY="0" viewBox="-7 -7 14 14" markerWidth="7" markerHeight="7" markerUnits="userSpaceOnUse"><path id="kity_path_3" fill="rgb(115, 161, 191)" stroke="none" d="M6,0A6,6,0,1,1,-6,0A6,6,0,1,1,6,0"></path></marker></defs><g id="kity_g_8"><g id="minder1" text-rendering="optimize-speed"><g id="minder_connect_group1"><path id="kity_path_31" fill="none" stroke="rgb(115, 161, 191)" stroke-width="1" d="M133.5,415.5A231,215,0,0,1,364.5,200.5"></path><path id="kity_path_33" fill="none" stroke="rgb(115, 161, 191)" stroke-width="1" d="M475.5,200.5C495.5,200.5,495.5,57.5,515.5,57.5"></path><path id="kity_path_35" fill="none" stroke="rgb(115, 161, 191)" stroke-width="1" d="M631.5,57.5C651.5,57.5,651.5,31.5,671.5,31.5"></path><path id="kity_path_37" fill="none" stroke="rgb(115, 161, 191)" stroke-width="1" d="M631.5,57.5C651.5,57.5,651.5,83.5,671.5,83.5"></path><path id="kity_path_39" fill="none" stroke="rgb(115, 161, 191)" stroke-width="1" d="M475.5,200.5C495.5,200.5,495.5,213.5,515.5,213.5"></path><path id="kity_path_41" fill="none" stroke="rgb(115, 161, 191)" stroke-width="1" d="M649.5,213.5C669.5,213.5,669.5,135.5,689.5,135.5"></path><path id="kity_path_43" fill="none" stroke="rgb(115, 161, 191)" stroke-width="1" d="M649.5,213.5C669.5,213.5,669.5,187.5,689.5,187.5"></path><path id="kity_path_45" fill="none" stroke="rgb(115, 161, 191)" stroke-width="1" d="M649.5,213.5C669.5,213.5,669.5,239.5,689.5,239.5"></path><path id="kity_path_47" fill="none" stroke="rgb(115, 161, 191)" stroke-width="1" d="M649.5,213.5C669.5,213.5,669.5,291.5,689.5,291.5"></path><path id="kity_path_51" fill="none" stroke="rgb(115, 161, 191)" stroke-width="1" d="M133.5,415.5A231,16,0,0,0,364.5,431.5"></path><path id="kity_path_53" fill="none" stroke="rgb(115, 161, 191)" stroke-width="1" d="M505.5,431.5C525.5,431.5,525.5,405.5,545.5,405.5"></path><path id="kity_path_55" fill="none" stroke="rgb(115, 161, 191)" stroke-width="1" d="M505.5,431.5C525.5,431.5,525.5,457.5,545.5,457.5"></path><path id="kity_path_57" fill="none" stroke="rgb(115, 161, 191)" stroke-width="1" d="M133.5,415.5A231,215,0,0,0,364.5,630.5"></path><path id="kity_path_59" fill="none" stroke="rgb(115, 161, 191)" stroke-width="1" d="M702.5,630.5C722.5,630.5,722.5,520.5,742.5,520.5"></path><path id="kity_path_61" fill="none" stroke="rgb(115, 161, 191)" stroke-width="1" d="M860.5,520.5C880.5,520.5,880.5,520.5,900.5,520.5"></path><path id="kity_path_63" fill="none" stroke="rgb(115, 161, 191)" stroke-width="1" d="M702.5,630.5C722.5,630.5,722.5,741.5,742.5,741.5"></path><path id="kity_path_65" fill="none" stroke="rgb(115, 161, 191)" stroke-width="1" d="M920.5,741.5C940.5,741.5,940.5,598.5,960.5,598.5"></path><path id="kity_path_67" fill="none" stroke="rgb(115, 161, 191)" stroke-width="1" d="M1130.5,598.5C1150.5,598.5,1150.5,572.5,1170.5,572.5"></path><path id="kity_path_69" fill="none" stroke="rgb(115, 161, 191)" stroke-width="1" d="M1130.5,598.5C1150.5,598.5,1150.5,624.5,1170.5,624.5"></path><path id="kity_path_71" fill="none" stroke="rgb(115, 161, 191)" stroke-width="1" d="M920.5,741.5C940.5,741.5,940.5,702.5,960.5,702.5"></path><path id="kity_path_73" fill="none" stroke="rgb(115, 161, 191)" stroke-width="1" d="M1154.5,702.5C1174.5,702.5,1174.5,676.5,1194.5,676.5"></path><path id="kity_path_75" fill="none" stroke="rgb(115, 161, 191)" stroke-width="1" d="M1154.5,702.5C1174.5,702.5,1174.5,728.5,1194.5,728.5"></path><path id="kity_path_77" fill="none" stroke="rgb(115, 161, 191)" stroke-width="1" d="M920.5,741.5C940.5,741.5,940.5,806.5,960.5,806.5"></path><path id="kity_path_79" fill="none" stroke="rgb(115, 161, 191)" stroke-width="1" d="M1170.5,806.5C1190.5,806.5,1190.5,780.5,1210.5,780.5"></path><path id="kity_path_81" fill="none" stroke="rgb(115, 161, 191)" stroke-width="1" d="M1170.5,806.5C1190.5,806.5,1190.5,832.5,1210.5,832.5"></path><path id="kity_path_83" fill="none" stroke="rgb(115, 161, 191)" stroke-width="1" d="M920.5,741.5C940.5,741.5,940.5,884.5,960.5,884.5"></path><path id="kity_path_248" fill="none" stroke="rgb(115, 161, 191)" stroke-width="1" d="M475.5,200.5C495.5,200.5,495.5,343.5,515.5,343.5"></path></g><g id="minder_node1"><path id="node_outline1" fill="rgb(115, 161, 191)" stroke="rgb(115, 161, 191)" d="M25.5,395.5h216a5,5,0,0,1,5,5v30a5,5,0,0,1,-5,5h-216a5,5,0,0,1,-5,-5v-30a5,5,0,0,1,5,-5z" stroke-width="3"></path><g id="node_text1" fill="white"><text id="kity_text_22" text-rendering="inherit" font-size="16" dy=".8em" y="407.5" x="44.5">投资时需要掌握哪些数据</text></g></g><g id="kity_g_12"><path id="kity_path_13" fill="none" stroke="none" d="M44.5,415.5h0v0h0z"></path></g><g id="kity_g_14"><path id="kity_path_15" fill="none" stroke="none" d="M44.5,415.5h0v0h0z"></path><path id="kity_path_16" fill="none" stroke="none"></path></g><g id="minder_node2"><g id="node_expander10" style="cursor: pointer;"><path id="kity_path_194" fill="white" stroke="gray" d="M365.5,200.5A6,6,0,1,1,353.5,200.5A6,6,0,1,1,365.5,200.5"></path><path id="kity_path_195" fill="none" stroke="gray" d="M355,200.5L364,200.5"></path></g><path id="node_outline11" fill="rgb(238, 243, 246)" stroke="rgb(115, 161, 191)" d="M369.5,187.5h103a3,3,0,0,1,3,3v20a3,3,0,0,1,-3,3h-103a3,3,0,0,1,-3,-3v-20a3,3,0,0,1,3,-3z" stroke-width="1"></path><g id="node_text11" fill="black"><text id="kity_text_103" text-rendering="inherit" font-size="14" dy=".8em" y="193.5" x="386.5">GDP和CPI</text></g></g><g id="minder_node3"><g id="node_expander3" style="cursor: pointer;"><path id="kity_path_173" fill="white" stroke="gray" d="M515.5,57.5A6,6,0,1,1,503.5,57.5A6,6,0,1,1,515.5,57.5"></path><path id="kity_path_174" fill="none" stroke="gray" d="M505,57.5L514,57.5"></path></g><path id="node_outline4" fill="none" stroke="none" d="M520.5,46.5h106a5,5,0,0,1,5,5v12a5,5,0,0,1,-5,5h-106a5,5,0,0,1,-5,-5v-12a5,5,0,0,1,5,-5z" stroke-width="3"></path><g id="node_text4" fill="black"><text id="kity_text_89" text-rendering="inherit" font-size="12" dy=".8em" y="51.5" x="525.5">GDP(经济增长率)</text></g></g><g id="minder_node4"><g id="node_expander1" style="cursor: pointer;" display="none"><path id="kity_path_167" fill="white" stroke="gray" d="M671.5,31.5A6,6,0,1,1,659.5,31.5A6,6,0,1,1,671.5,31.5"></path><path id="kity_path_168" fill="none" stroke="gray"></path></g><path id="node_outline2" fill="none" stroke="none" d="M676.5,20.5h62a5,5,0,0,1,5,5v12a5,5,0,0,1,-5,5h-62a5,5,0,0,1,-5,-5v-12a5,5,0,0,1,5,-5z" stroke-width="3"></path><g id="node_text2" fill="black"><text id="kity_text_85" text-rendering="inherit" font-size="12" dy=".8em" y="25.5" x="681.5">季度GDP</text></g></g><g id="minder_node5"><g id="node_expander2" style="cursor: pointer;" display="none"><path id="kity_path_170" fill="white" stroke="gray" d="M671.5,83.5A6,6,0,1,1,659.5,83.5A6,6,0,1,1,671.5,83.5"></path><path id="kity_path_171" fill="none" stroke="gray"></path></g><path id="node_outline3" fill="none" stroke="none" d="M676.5,72.5h62a5,5,0,0,1,5,5v12a5,5,0,0,1,-5,5h-62a5,5,0,0,1,-5,-5v-12a5,5,0,0,1,5,-5z" stroke-width="3"></path><g id="node_text3" fill="black"><text id="kity_text_87" text-rendering="inherit" font-size="12" dy=".8em" y="77.5" x="681.5">年度GDP</text></g></g><g id="minder_node6"><g id="node_expander8" style="cursor: pointer;"><path id="kity_path_188" fill="white" stroke="gray" d="M515.5,213.5A6,6,0,1,1,503.5,213.5A6,6,0,1,1,515.5,213.5"></path><path id="kity_path_189" fill="none" stroke="gray" d="M505,213.5L514,213.5"></path></g><path id="node_outline9" fill="none" stroke="none" d="M520.5,202.5h124a5,5,0,0,1,5,5v12a5,5,0,0,1,-5,5h-124a5,5,0,0,1,-5,-5v-12a5,5,0,0,1,5,-5z" stroke-width="3"></path><g id="node_text9" fill="black"><text id="kity_text_99" text-rendering="inherit" font-size="12" dy=".8em" y="207.5" x="525.5">CPI(消费者物价指数)</text></g></g><g id="minder_node7"><g id="node_expander4" style="cursor: pointer;" display="none"><path id="kity_path_176" fill="white" stroke="gray" d="M689.5,135.5A6,6,0,1,1,677.5,135.5A6,6,0,1,1,689.5,135.5"></path><path id="kity_path_177" fill="none" stroke="gray"></path></g><path id="node_outline5" fill="none" stroke="none" d="M694.5,124.5h144a5,5,0,0,1,5,5v12a5,5,0,0,1,-5,5h-144a5,5,0,0,1,-5,-5v-12a5,5,0,0,1,5,-5z" stroke-width="3"></path><g id="node_text5" fill="black"><text id="kity_text_91" text-rendering="inherit" font-size="12" dy=".8em" y="129.5" x="699.5">衡量同伙膨胀的重要指标</text></g></g><g id="minder_node8"><g id="node_expander5" style="cursor: pointer;" display="none"><path id="kity_path_179" fill="white" stroke="gray" d="M689.5,187.5A6,6,0,1,1,677.5,187.5A6,6,0,1,1,689.5,187.5"></path><path id="kity_path_180" fill="none" stroke="gray"></path></g><path id="node_outline6" fill="none" stroke="none" d="M694.5,176.5h591a5,5,0,0,1,5,5v12a5,5,0,0,1,-5,5h-591a5,5,0,0,1,-5,-5v-12a5,5,0,0,1,5,-5z" stroke-width="3"></path><g id="node_text6" fill="black"><text id="kity_text_93" text-rendering="inherit" font-size="12" dy=".8em" y="181.5" x="699.5">中国国情，如果CPI到达3%以上，就说明物价增长过快，央行会通过加息,提高存款准备金率等方式来收紧货币</text></g></g><g id="minder_node9"><g id="node_expander6" style="cursor: pointer;" display="none"><path id="kity_path_182" fill="white" stroke="gray" d="M689.5,239.5A6,6,0,1,1,677.5,239.5A6,6,0,1,1,689.5,239.5"></path><path id="kity_path_183" fill="none" stroke="gray"></path></g><path id="node_outline7" fill="none" stroke="none" d="M694.5,228.5h600a5,5,0,0,1,5,5v12a5,5,0,0,1,-5,5h-600a5,5,0,0,1,-5,-5v-12a5,5,0,0,1,5,-5z" stroke-width="3"></path><g id="node_text7" fill="black"><text id="kity_text_95" text-rendering="inherit" font-size="12" dy=".8em" y="233.5" x="699.5">如果CPI跌倒1%以下，说明物价增长过慢，意味着经济低迷，央行会通过降息，降低存款准备金率来刺激经济。</text></g></g><g id="minder_node10"><g id="node_expander7" style="cursor: pointer;" display="none"><path id="kity_path_185" fill="white" stroke="gray" d="M689.5,291.5A6,6,0,1,1,677.5,291.5A6,6,0,1,1,689.5,291.5"></path><path id="kity_path_186" fill="none" stroke="gray"></path></g><path id="node_outline8" fill="none" stroke="none" d="M694.5,280.5h481a5,5,0,0,1,5,5v12a5,5,0,0,1,-5,5h-481a5,5,0,0,1,-5,-5v-12a5,5,0,0,1,5,-5z" stroke-width="3"></path><g id="node_text8" fill="black"><text id="kity_text_97" text-rendering="inherit" font-size="12" dy=".8em" y="285.5" x="699.5">CPI 1%-3%之间是正常水平，这只是结果，还是需要论证过程的，只不过目前没这个能力</text></g></g><g id="minder_node12"><g id="node_expander13" style="cursor: pointer;"><path id="kity_path_203" fill="white" stroke="gray" d="M365.5,431.5A6,6,0,1,1,353.5,431.5A6,6,0,1,1,365.5,431.5"></path><path id="kity_path_204" fill="none" stroke="gray" d="M355,431.5L364,431.5"></path></g><path id="node_outline14" fill="rgb(238, 243, 246)" stroke="rgb(115, 161, 191)" d="M369.5,418.5h133a3,3,0,0,1,3,3v20a3,3,0,0,1,-3,3h-133a3,3,0,0,1,-3,-3v-20a3,3,0,0,1,3,-3z" stroke-width="1"></path><g id="node_text14" fill="black"><text id="kity_text_109" text-rendering="inherit" font-size="14" dy=".8em" y="424.5" x="386.5">中央银行的职责</text></g></g><g id="minder_node13"><g id="node_expander11" style="cursor: pointer;" display="none"><path id="kity_path_197" fill="white" stroke="gray" d="M545.5,405.5A6,6,0,1,1,533.5,405.5A6,6,0,1,1,545.5,405.5"></path><path id="kity_path_198" fill="none" stroke="gray"></path></g><path id="node_outline12" fill="none" stroke="none" d="M550.5,394.5h60a5,5,0,0,1,5,5v12a5,5,0,0,1,-5,5h-60a5,5,0,0,1,-5,-5v-12a5,5,0,0,1,5,-5z" stroke-width="3"></path><g id="node_text12" fill="black"><text id="kity_text_105" text-rendering="inherit" font-size="12" dy=".8em" y="399.5" x="555.5">调控物价</text></g></g><g id="minder_node14"><g id="node_expander12" style="cursor: pointer;" display="none"><path id="kity_path_200" fill="white" stroke="gray" d="M545.5,457.5A6,6,0,1,1,533.5,457.5A6,6,0,1,1,545.5,457.5"></path><path id="kity_path_201" fill="none" stroke="gray"></path></g><path id="node_outline13" fill="none" stroke="none" d="M550.5,446.5h84a5,5,0,0,1,5,5v12a5,5,0,0,1,-5,5h-84a5,5,0,0,1,-5,-5v-12a5,5,0,0,1,5,-5z"></path><g id="node_text13" fill="black"><text id="kity_text_107" text-rendering="inherit" font-size="12" dy=".8em" y="451.5" x="555.5">促进经济增长</text></g></g><g id="minder_node15"><g id="node_expander27" style="cursor: pointer;"><path id="kity_path_245" fill="white" stroke="gray" d="M365.5,630.5A6,6,0,1,1,353.5,630.5A6,6,0,1,1,365.5,630.5"></path><path id="kity_path_246" fill="none" stroke="gray" d="M355,630.5L364,630.5"></path></g><path id="node_outline28" fill="rgb(238, 243, 246)" stroke="rgb(115, 161, 191)" d="M369.5,617.5h330a3,3,0,0,1,3,3v20a3,3,0,0,1,-3,3h-330a3,3,0,0,1,-3,-3v-20a3,3,0,0,1,3,-3z" stroke-width="1"></path><g id="node_text28" fill="black"><text id="kity_text_137" text-rendering="inherit" font-size="14" dy=".8em" y="623.5" x="386.5">债券的到期收益率和股票指数的盈利与估值水平</text></g></g><g id="minder_node16"><g id="node_expander15" style="cursor: pointer;"><path id="kity_path_209" fill="white" stroke="gray" d="M742.5,520.5A6,6,0,1,1,730.5,520.5A6,6,0,1,1,742.5,520.5"></path><path id="kity_path_210" fill="none" stroke="gray" d="M732,520.5L741,520.5"></path></g><path id="node_outline16" fill="none" stroke="none" d="M747.5,509.5h108a5,5,0,0,1,5,5v12a5,5,0,0,1,-5,5h-108a5,5,0,0,1,-5,-5v-12a5,5,0,0,1,5,-5z" stroke-width="3"></path><g id="node_text16" fill="black"><text id="kity_text_113" text-rendering="inherit" font-size="12" dy=".8em" y="514.5" x="752.5">债券的到期收益率</text></g></g><g id="minder_node17"><g id="node_expander14" style="cursor: pointer;" display="none"><path id="kity_path_206" fill="white" stroke="gray" d="M900.5,520.5A6,6,0,1,1,888.5,520.5A6,6,0,1,1,900.5,520.5"></path><path id="kity_path_207" fill="none" stroke="gray"></path></g><path id="node_outline15" fill="none" stroke="none" d="M905.5,509.5h448a5,5,0,0,1,5,5v12a5,5,0,0,1,-5,5h-448a5,5,0,0,1,-5,-5v-12a5,5,0,0,1,5,-5z"></path><g id="node_text15" fill="black"><text id="kity_text_111" text-rendering="inherit" font-size="12" dy=".8em" y="514.5" x="910.5">通过3年期AA+企业债的"到期收益率"的情况，来判断债券市场未来的涨跌，5买4卖</text></g></g><g id="minder_node18"><g id="node_expander26" style="cursor: pointer;"><path id="kity_path_242" fill="white" stroke="gray" d="M742.5,741.5A6,6,0,1,1,730.5,741.5A6,6,0,1,1,742.5,741.5"></path><path id="kity_path_243" fill="none" stroke="gray" d="M732,741.5L741,741.5"></path></g><path id="node_outline27" fill="none" stroke="none" d="M747.5,730.5h168a5,5,0,0,1,5,5v12a5,5,0,0,1,-5,5h-168a5,5,0,0,1,-5,-5v-12a5,5,0,0,1,5,-5z"></path><g id="node_text27" fill="black"><text id="kity_text_135" text-rendering="inherit" font-size="12" dy=".8em" y="735.5" x="752.5">股票的盈利增长率和估值水平</text></g></g><g id="minder_node19"><g id="node_expander18" style="cursor: pointer;"><path id="kity_path_218" fill="white" stroke="gray" d="M960.5,598.5A6,6,0,1,1,948.5,598.5A6,6,0,1,1,960.5,598.5"></path><path id="kity_path_219" fill="none" stroke="gray" d="M950,598.5L959,598.5"></path></g><path id="node_outline19" fill="none" stroke="none" d="M965.5,587.5h160a5,5,0,0,1,5,5v12a5,5,0,0,1,-5,5h-160a5,5,0,0,1,-5,-5v-12a5,5,0,0,1,5,-5z"></path><g id="node_text19" fill="black"><text id="kity_text_119" text-rendering="inherit" font-size="12" dy=".8em" y="592.5" x="970.5">上证50指数 "超级大盘指数"&#xa0;</text></g></g><g id="minder_node20"><g id="node_expander16" style="cursor: pointer;" display="none"><path id="kity_path_212" fill="white" stroke="gray" d="M1170.5,572.5A6,6,0,1,1,1158.5,572.5A6,6,0,1,1,1170.5,572.5"></path><path id="kity_path_213" fill="none" stroke="gray"></path></g><path id="node_outline17" fill="none" stroke="none" d="M1175.5,561.5h313a5,5,0,0,1,5,5v12a5,5,0,0,1,-5,5h-313a5,5,0,0,1,-5,-5v-12a5,5,0,0,1,5,-5z"></path><g id="node_text17" fill="black"><text id="kity_text_115" text-rendering="inherit" font-size="12" dy=".8em" y="566.5" x="1180.5">上海证券交易所里，市值最大的50家上市公司的股票构成</text></g></g><g id="minder_node21"><g id="node_expander17" style="cursor: pointer;" display="none"><path id="kity_path_215" fill="white" stroke="gray" d="M1170.5,624.5A6,6,0,1,1,1158.5,624.5A6,6,0,1,1,1170.5,624.5"></path><path id="kity_path_216" fill="none" stroke="gray"></path></g><path id="node_outline18" fill="none" stroke="none" d="M1175.5,613.5h145a5,5,0,0,1,5,5v12a5,5,0,0,1,-5,5h-145a5,5,0,0,1,-5,-5v-12a5,5,0,0,1,5,-5z"></path><g id="node_text18" fill="black"><text id="kity_text_117" text-rendering="inherit" font-size="12" dy=".8em" y="618.5" x="1180.5">市盈率 11-30倍 比较合理</text></g></g><g id="minder_node22"><g id="node_expander21" style="cursor: pointer;"><path id="kity_path_227" fill="white" stroke="gray" d="M960.5,702.5A6,6,0,1,1,948.5,702.5A6,6,0,1,1,960.5,702.5"></path><path id="kity_path_228" fill="none" stroke="gray" d="M950,702.5L959,702.5"></path></g><path id="node_outline22" fill="none" stroke="none" d="M965.5,691.5h184a5,5,0,0,1,5,5v12a5,5,0,0,1,-5,5h-184a5,5,0,0,1,-5,-5v-12a5,5,0,0,1,5,-5z"></path><g id="node_text22" fill="black"><text id="kity_text_125" text-rendering="inherit" font-size="12" dy=".8em" y="696.5" x="970.5">沪深300指数 "A股市场的晴雨表"</text></g></g><g id="minder_node23"><g id="node_expander19" style="cursor: pointer;" display="none"><path id="kity_path_221" fill="white" stroke="gray" d="M1194.5,676.5A6,6,0,1,1,1182.5,676.5A6,6,0,1,1,1194.5,676.5"></path><path id="kity_path_222" fill="none" stroke="gray"></path></g><path id="node_outline20" fill="none" stroke="none" d="M1199.5,665.5h262a5,5,0,0,1,5,5v12a5,5,0,0,1,-5,5h-262a5,5,0,0,1,-5,-5v-12a5,5,0,0,1,5,-5z"></path><g id="node_text20" fill="black"><text id="kity_text_121" text-rendering="inherit" font-size="12" dy=".8em" y="670.5" x="1204.5">沪深两市市值最大的300家上市公司的股票构成&#xa0;</text></g></g><g id="minder_node24"><g id="node_expander20" style="cursor: pointer;" display="none"><path id="kity_path_224" fill="white" stroke="gray" d="M1194.5,728.5A6,6,0,1,1,1182.5,728.5A6,6,0,1,1,1194.5,728.5"></path><path id="kity_path_225" fill="none" stroke="gray"></path></g><path id="node_outline21" fill="none" stroke="none" d="M1199.5,717.5h144a5,5,0,0,1,5,5v12a5,5,0,0,1,-5,5h-144a5,5,0,0,1,-5,-5v-12a5,5,0,0,1,5,-5z"></path><g id="node_text21" fill="black"><text id="kity_text_123" text-rendering="inherit" font-size="12" dy=".8em" y="722.5" x="1204.5">市盈率 12-15倍 合理区间</text></g></g><g id="minder_node25"><g id="node_expander24" style="cursor: pointer;"><path id="kity_path_236" fill="white" stroke="gray" d="M960.5,806.5A6,6,0,1,1,948.5,806.5A6,6,0,1,1,960.5,806.5"></path><path id="kity_path_237" fill="none" stroke="gray" d="M950,806.5L959,806.5"></path></g><path id="node_outline25" fill="none" stroke="none" d="M965.5,795.5h200a5,5,0,0,1,5,5v12a5,5,0,0,1,-5,5h-200a5,5,0,0,1,-5,-5v-12a5,5,0,0,1,5,-5z"></path><g id="node_text25" fill="black"><text id="kity_text_131" text-rendering="inherit" font-size="12" dy=".8em" y="800.5" x="970.5">沪深500指数 "中小规模公司的集合"</text></g></g><g id="minder_node26"><g id="node_expander22" style="cursor: pointer;" display="none"><path id="kity_path_230" fill="white" stroke="gray" d="M1210.5,780.5A6,6,0,1,1,1198.5,780.5A6,6,0,1,1,1210.5,780.5"></path><path id="kity_path_231" fill="none" stroke="gray"></path></g><path id="node_outline23" fill="none" stroke="none" d="M1215.5,769.5h232a5,5,0,0,1,5,5v12a5,5,0,0,1,-5,5h-232a5,5,0,0,1,-5,-5v-12a5,5,0,0,1,5,-5z"></path><g id="node_text23" fill="black"><text id="kity_text_127" text-rendering="inherit" font-size="12" dy=".8em" y="774.5" x="1220.5">沪深市值排名在300到800之间的股票集合</text></g></g><g id="minder_node27"><g id="node_expander23" style="cursor: pointer;" display="none"><path id="kity_path_233" fill="white" stroke="gray" d="M1210.5,832.5A6,6,0,1,1,1198.5,832.5A6,6,0,1,1,1210.5,832.5"></path><path id="kity_path_234" fill="none" stroke="gray"></path></g><path id="node_outline24" fill="none" stroke="none" d="M1215.5,821.5h148a5,5,0,0,1,5,5v12a5,5,0,0,1,-5,5h-148a5,5,0,0,1,-5,-5v-12a5,5,0,0,1,5,-5z"></path><g id="node_text24" fill="black"><text id="kity_text_129" text-rendering="inherit" font-size="12" dy=".8em" y="826.5" x="1220.5">市盈率 25-30倍 合理区间&#xa0;</text></g></g><g id="minder_node28"><g id="node_expander25" style="cursor: pointer;" display="none"><path id="kity_path_239" fill="white" stroke="gray" d="M960.5,884.5A6,6,0,1,1,948.5,884.5A6,6,0,1,1,960.5,884.5"></path><path id="kity_path_240" fill="none" stroke="gray"></path></g><path id="node_outline26" fill="none" stroke="none" d="M965.5,873.5h494a5,5,0,0,1,5,5v12a5,5,0,0,1,-5,5h-494a5,5,0,0,1,-5,-5v-12a5,5,0,0,1,5,-5z"></path><g id="node_text26" fill="black"><text id="kity_text_133" text-rendering="inherit" font-size="12" dy=".8em" y="878.5" x="970.5">指数的盈利增长，趋势比绝对值重要，通过GDP的增长趋势来估计股票指数的盈利增长情况</text></g></g><g id="minder_node29"><g id="node_expander28" style="cursor: pointer;" display="none"><path id="kity_path_254" fill="white" stroke="gray" d="M515.5,343.5A6,6,0,1,1,503.5,343.5A6,6,0,1,1,515.5,343.5"></path><path id="kity_path_255" fill="none" stroke="gray"></path></g><path id="node_outline29" fill="none" stroke="none" d="M520.5,332.5h648a5,5,0,0,1,5,5v12a5,5,0,0,1,-5,5h-648a5,5,0,0,1,-5,-5v-12a5,5,0,0,1,5,-5z" stroke-width="3"></path><g id="node_text29" fill="black"><text id="kity_text_250" text-rendering="inherit" font-size="12" dy=".8em" y="337.5" x="525.5">美林时钟理论，貌似是投资圈一个比较有名的理论，由美国投行美林证券提出的，每个阶段的资产配置策略应该跟随变动</text></g><image id="kity_image_251" xlink:href="http://kityminder-img.gz.bcebos.com/0f4d3ac228d04bb6a3f1816053276ba90fbd879b" x="744.5" y="162.5" width="200" height="170" display="none"></image></g></g></g></svg>